HIERARCHY
ROOT RootJoint
{
    OFFSET   0.000000   0.000000   0.000000
    CHANNELS 6 Xposition Yposition Zposition Xrotation Yrotation Zrotation
    JOINT pelvis_lowerback
    {
        OFFSET   0.000000   0.093605   0.000000
        CHANNELS 3 Xrotation Yrotation Zrotation
        JOINT lowerback_torso
        {
            OFFSET   0.000000   0.100000   0.000000
            CHANNELS 3 Xrotation Yrotation Zrotation
            JOINT torso_head
            {
                OFFSET   0.000000   0.282350   0.000000
                CHANNELS 3 Xrotation Yrotation Zrotation
                End Site
                {
                    OFFSET   0.000000   0.192650   0.000000
                }
            }
            JOINT rTorso_Clavicle
            {
                OFFSET  -0.001000   0.157500   0.000000
                CHANNELS 3 Xrotation Yrotation Zrotation
                JOINT rShoulder
                {
                    OFFSET  -0.117647   0.000000   0.000000
                    CHANNELS 3 Xrotation Yrotation Zrotation
                    JOINT rElbow
                    {
                        OFFSET  -0.245000   0.000000   0.000000
                        CHANNELS 3 Xrotation Yrotation Zrotation
                        JOINT rWrist
                        {
                            OFFSET  -0.240000   0.000000   0.000000
                            CHANNELS 3 Xrotation Yrotation Zrotation
                            End Site
                            {
                                OFFSET  -0.116353  -0.002500   0.000000
                            }
                        }
                    }
                }
            }
            JOINT lTorso_Clavicle
            {
                OFFSET   0.001000   0.157500   0.000000
                CHANNELS 3 Xrotation Yrotation Zrotation
                JOINT lShoulder
                {
                    OFFSET   0.117647   0.000000   0.000000
                    CHANNELS 3 Xrotation Yrotation Zrotation
                    JOINT lElbow
                    {
                        OFFSET   0.245000   0.000000   0.000000
                        CHANNELS 3 Xrotation Yrotation Zrotation
                        JOINT lWrist
                        {
                            OFFSET   0.240000   0.000000   0.000000
                            CHANNELS 3 Xrotation Yrotation Zrotation
                            End Site
                            {
                                OFFSET   0.116353  -0.002500   0.000000
                            }
                        }
                    }
                }
            }
        }
    }
    JOINT rHip
    {
        OFFSET  -0.100000  -0.051395   0.000000
        CHANNELS 3 Xrotation Yrotation Zrotation
        JOINT rKnee
        {
            OFFSET   0.000000  -0.410000   0.000000
            CHANNELS 3 Xrotation Yrotation Zrotation
            JOINT rAnkle
            {
                OFFSET   0.000000  -0.390000   0.000000
                CHANNELS 3 Xrotation Yrotation Zrotation
                JOINT rToeJoint
                {
                    OFFSET   0.000000  -0.050000   0.130000
                    CHANNELS 3 Xrotation Yrotation Zrotation
                    End Site
                    {
                        OFFSET  -0.010000   0.002000   0.060000
                    }
                }
            }
        }
    }
    JOINT lHip
    {
        OFFSET   0.100000  -0.051395   0.000000
        CHANNELS 3 Xrotation Yrotation Zrotation
        JOINT lKnee
        {
            OFFSET   0.000000  -0.410000   0.000000
            CHANNELS 3 Xrotation Yrotation Zrotation
            JOINT lAnkle
            {
                OFFSET   0.000000  -0.390000   0.000000
                CHANNELS 3 Xrotation Yrotation Zrotation
                JOINT lToeJoint
                {
                    OFFSET   0.000000  -0.050000   0.130000
                    CHANNELS 3 Xrotation Yrotation Zrotation
                    End Site
                    {
                        OFFSET   0.010000   0.002000   0.060000
                    }
                }
            }
        }
    }
}
MOTION
Frames: 15
Frame Time:   0.008333
 -2.376719   0.925631   3.975860   0.000000   0.000000   0.000000   0.000000   0.000000   0.000000   0.000000   0.000000   0.000000   0.000000   0.000000   0.000000   0.000000   0.000000   0.000000   0.000000   0.000000   0.000000   0.000000   0.000000   0.000000   0.000000   0.000000   0.000000   0.000000   0.000000   0.000000   0.000000   0.000000   0.000000   0.000000   0.000000   0.000000   0.000000   0.000000   0.000000   0.000000   0.000000   0.000000   0.000000   0.000000   0.000000   0.000000   0.000000   0.000000   0.000000   0.000000   0.000000   0.000000   0.000000   0.000000   0.000000   0.000000   0.000000   0.000000   0.000000   0.000000   0.000000   0.000000   0.000000
 -2.376772   0.926432   3.975916  -0.118403   0.058227  -0.067587  -0.026468   0.063914   0.048642   0.215774  -0.185867   0.017683  -0.070791   0.106923   0.121640   0.166309  -0.305935   0.655338   0.716796   0.371581   1.920597   0.019979   0.884939  -0.007491   0.285444  -0.501410  -3.047487   0.268040   0.255284  -0.837092   1.110899  -0.096396  -1.782372   0.019173  -0.833944   0.010667   0.336739   0.244595   3.199800  -0.119743   0.171374  -0.083165   0.970569   0.001296   0.001932  -1.065097  -0.178485   0.003192  -0.181516  -0.000230  -0.000083  -0.339400  -0.167532   0.269274   1.479853  -0.002632  -0.001362  -1.127714   0.169307   0.026782   0.290158  -0.000577   0.000151
 -2.376879   0.927743   3.976236  -0.300166   0.085880  -0.140336  -0.077989   0.138600   0.092216   0.449619  -0.360266   0.036516  -0.121396   0.208557   0.250164   0.331886  -0.541412   2.099440   1.402525   0.820976   4.476811   0.046631   1.754897  -0.012563   0.598965  -0.707377  -5.325321   0.535894   0.449417  -2.480470   2.195882  -0.269029  -4.222880   0.044700  -1.644400   0.018256   0.721886   0.253999   5.641693  -0.141920   0.341081  -0.293434   2.013337   0.003700   0.003244  -2.061580  -0.346249   0.003052  -0.407425  -0.000739  -0.000132  -0.601684  -0.324545   0.700990   3.049620  -0.007147  -0.002542  -2.175553   0.330979   0.056730   0.530677  -0.001281   0.000204
 -2.377015   0.929094   3.976752  -0.477977   0.085917  -0.206342  -0.167135   0.215062   0.123837   0.644237  -0.516905   0.046198  -0.171912   0.303271   0.373159   0.491500  -0.719100   4.013697   2.050203   1.327747   7.450740   0.072796   2.579009  -0.015397   0.904947  -0.787943  -6.677426   0.790149   0.590522  -4.595119   3.249317  -0.515523  -7.095336   0.069822  -2.409719   0.023076   1.099609   0.168884   7.135438  -0.119678   0.496630  -0.620617   3.019906   0.006534   0.003734  -2.990709  -0.504647  -0.000365  -0.620084  -0.001327  -0.000112  -0.820652  -0.469401   1.250453   4.550150  -0.012246  -0.003238  -3.151793   0.483600   0.088736   0.750403  -0.002022   0.000216
 -2.377170   0.930145   3.977404  -0.639464   0.063215  -0.264827  -0.284197   0.290314   0.143518   0.797363  -0.658906   0.045609  -0.225708   0.391511   0.488749   0.647123  -0.859773   6.183284   2.659442   1.882512  10.702421   0.095202   3.353499  -0.016693   1.199368  -0.810134  -7.338085   1.030805   0.696043  -6.961696   4.272960  -0.833893 -10.254285   0.091465  -3.128773   0.025965   1.464191   0.037196   7.915263  -0.071401   0.638888  -1.044403   3.972658   0.009356   0.003617  -3.858142  -0.654092  -0.006613  -0.821090  -0.001921  -0.000052  -1.011774  -0.604526   1.890601   5.960388  -0.017197  -0.003464  -4.063329   0.627254   0.122138   0.945803  -0.002678   0.000207
 -2.377334   0.930643   3.978150  -0.784659   0.020635  -0.316955  -0.419166   0.362944   0.152579   0.917537  -0.788897   0.035720  -0.281355   0.473733   0.596800   0.800232  -0.977385   8.465832   3.229362   2.478187  14.136457   0.112588   4.078018  -0.016999   1.480209  -0.806857  -7.533816   1.258488   0.778119  -9.436305   5.266373  -1.221297 -13.600940   0.108435  -3.802332   0.027566   1.813199  -0.116744   8.211588  -0.005171   0.769565  -1.544818   4.870447   0.011912   0.003094  -4.668139  -0.794799  -0.015179  -1.010374  -0.002467   0.000027  -1.181465  -0.731918   2.600234   7.281381  -0.021597  -0.003326  -4.914739   0.762173   0.156404   1.119293  -0.003203   0.000188
 -2.377517   0.930401   3.978951  -0.915851  -0.039740  -0.362768  -0.563966   0.432371   0.149687   1.013581  -0.908596   0.011975  -0.337238   0.550322   0.699192   0.951929  -1.080060  10.771153   3.758710   3.109877  17.690934   0.124821   4.753959  -0.016706   1.746566  -0.795503  -7.430244   1.474535   0.844093 -11.944936   6.208716  -1.666715 -17.011361   0.120448  -4.432702   0.028226   2.146247  -0.283242   8.166033   0.073803   0.890089  -2.103787   5.715218   0.014053   0.002327  -5.424502  -0.927048  -0.025621  -1.187794  -0.002931   0.000113  -1.333417  -0.853108   3.361743   8.517840  -0.025264  -0.002943  -5.709970   0.888631   0.191068   1.273943  -0.003590   0.000164
 -2.377708   0.928702   3.979100  -0.808571  -0.141502  -0.395301  -0.810577   0.494052   0.149598   1.062156  -0.956657  -0.047374  -0.564920   0.479857   0.720337   1.150764  -0.969621  12.430241   4.302450   3.637694  21.229417   0.133784   5.496405  -0.018348   1.875352  -0.770715  -6.288164   1.641303   0.850260 -13.679953   6.808843  -2.167934 -20.391997   0.124711  -5.042403   0.027268   2.367051  -0.478689   6.971901  -0.215295   0.833862  -2.628993   6.583711   0.015366  -0.000029  -5.896874  -1.146040   0.204000  -1.079525  -0.002020  -0.000265  -1.683014  -0.800123   4.054263   9.204314  -0.024183  -0.001647  -6.467455   1.024424   0.129932   1.513573  -0.004110   0.000466
 -2.377890   0.925758   3.978911  -0.679629  -0.213646  -0.426823  -0.988785   0.543549   0.148809   1.107800  -1.001164  -0.102428  -0.791495   0.408384   0.726687   1.310516  -0.802163  13.827148   4.767873   4.197893  24.434825   0.135810   6.204297  -0.019707   2.010010  -0.679734  -5.171581   1.770318   0.799901 -15.107161   7.328856  -2.697450 -23.418628   0.123528  -5.625058   0.026352   2.574047  -0.724776   5.848793  -0.536895   0.771990  -3.106632   7.371933   0.015673  -0.001619  -6.333595  -1.354810   0.416312  -0.951267  -0.001270  -0.000605  -2.084370  -0.752192   4.685740   9.742285  -0.022144  -0.000644  -7.181200   1.152283   0.074528   1.717068  -0.004233   0.000695
 -2.378050   0.921690   3.978546  -0.552507  -0.264819  -0.459548  -1.116870   0.590646   0.152029   1.165322  -1.041662  -0.146877  -0.998288   0.341480   0.728658   1.433701  -0.606412  15.025156   5.161463   4.769807  27.349407   0.133259   6.876831  -0.020614   2.147560  -0.535345  -4.246738   1.868191   0.716686 -16.311672   7.779273  -3.235545 -26.147996   0.118861  -6.178462   0.025299   2.777332  -1.007948   4.955503  -0.850610   0.716999  -3.538157   8.094163   0.015342  -0.002595  -6.741052  -1.550925   0.612886  -0.832127  -0.000728  -0.000813  -2.507869  -0.713219   5.258903  10.207986  -0.019877   0.000103  -7.849177   1.271716   0.024213   1.900134  -0.004143   0.000853
 -2.378180   0.916588   3.978104  -0.430824  -0.301978  -0.493311  -1.211561   0.638583   0.161276   1.230778  -1.075907  -0.180270  -1.185638   0.279186   0.729039   1.528136  -0.400609  16.064725   5.493537   5.336273  30.012380   0.127716   7.512230  -0.021013   2.283700  -0.358112  -3.494219   1.943476   0.620291 -17.343522   8.170636  -3.765483 -28.626306   0.112017  -6.700335   0.024015   2.973955  -1.307493   4.257569  -1.146017   0.668162  -3.926895   8.761737   0.014618  -0.003155  -7.121101  -1.734885   0.795047  -0.722165  -0.000345  -0.000926  -2.937622  -0.681893   5.775677  10.622855  -0.017609   0.000634  -8.473336   1.383119  -0.021591   2.067570  -0.003925   0.000951
 -2.378388   0.915945   3.978166  -0.494249  -0.175786  -0.553645  -1.226487   0.634497   0.177740   1.370450  -1.143958  -0.193268  -1.346981   0.219131   0.732552   1.621471  -0.207980  17.289554   5.781652   5.871631  32.545988   0.121648   8.090442  -0.020844   2.410385  -0.249418  -2.923303   1.994256   0.503629 -18.533578   8.503815  -4.291960 -30.965616   0.105232  -7.180689   0.022196   3.159620  -1.538980   3.761807  -1.440889   0.654170  -3.880944   9.554442   0.011855  -0.002129  -7.482079  -1.814894   1.237012  -0.480228  -0.001172  -0.000741  -3.411856  -0.520889   5.915548  11.598764  -0.014285   0.003812  -8.612897   1.572445  -0.270184   2.304012  -0.002766   0.001874
 -2.378579   0.915482   3.978520  -0.519360  -0.048851  -0.547511  -1.301536   0.655202   0.146344   1.474216  -1.194588  -0.221776  -1.495545   0.164315   0.730510   1.720600  -0.042713  18.318148   6.034076   6.382386  34.934238   0.114141   8.638958  -0.020299   2.530828  -0.108573  -2.222586   2.055989   0.417633 -19.508646   8.803770  -4.786510 -33.153393   0.097523  -7.636834   0.020079   3.337502  -1.815103   3.166304  -1.683967   0.653549  -3.884398  10.211030   0.009548  -0.001223  -7.837723  -1.917979   1.422463  -0.445843  -0.000993  -0.000593  -3.733883  -0.456484   5.953214  12.302374  -0.011425   0.004640  -9.010038   1.669335  -0.334708   2.494311  -0.002148   0.002050
 -2.378783   0.915169   3.978761  -0.482351  -0.024618  -0.531784  -1.306745   0.758726   0.051488   1.488525  -1.190655  -0.170177  -1.672701   0.070412   0.715738   1.812016   0.136042  18.850420   6.267670   6.866934  36.878533   0.102536   9.129845  -0.019700   2.603172   0.219486  -0.828578   2.156439   0.345615 -19.988320   8.921949  -5.249015 -35.039986   0.090290  -8.194909   0.018078   3.438345  -2.125366   1.953802  -1.928781   0.646322  -3.895393  10.678312   0.007619  -0.001039  -8.086879  -2.018044   1.476402  -0.396688  -0.000819  -0.000516  -3.966069  -0.337232   5.974018  12.693127  -0.009122   0.004355  -9.188575   1.753977  -0.315569   2.604205  -0.001752   0.001886
 -2.378996   0.914958   3.978880  -0.385965  -0.026469  -0.512588  -1.297308   0.866132  -0.044591   1.481660  -1.176511  -0.122166  -1.841058  -0.017263   0.705034   1.864135   0.318485  19.063362   6.466447   7.321382  38.493113   0.089970   9.590259  -0.018885   2.670757   0.553377   0.300891   2.230274   0.267227 -20.169073   9.018673  -5.672849 -36.618039   0.081016  -8.719620   0.016282   3.528613  -2.460647   0.985451  -2.196213   0.638025  -3.910298  11.041488   0.006068  -0.000942  -8.314390  -2.112536   1.515468  -0.186880  -0.000735  -0.000624  -4.202711  -0.230258   5.987147  12.972631  -0.007291   0.003826  -9.381006   1.831847  -0.292667   2.715248  -0.001435   0.001708
